<mxfile host="app.diagrams.net" agent="Mozilla/5.0 (Macintosh; Intel Mac OS X 10_15_7) AppleWebKit/537.36 (KHTML, like Gecko) Chrome/132.0.0.0 Safari/537.36" version="25.0.3">
  <diagram name="Page-1" id="1BSmQ5ckU1X0MbRb7pCT">
    <mxGraphModel dx="1010" dy="678" grid="1" gridSize="10" guides="1" tooltips="1" connect="1" arrows="1" fold="1" page="1" pageScale="1" pageWidth="850" pageHeight="1100" math="0" shadow="0">
      <root>
        <mxCell id="0" />
        <mxCell id="1" parent="0" />
        <mxCell id="LNmc2DqSNjEhNIRZq2Sj-1" value="React" style="text;html=1;align=center;verticalAlign=middle;whiteSpace=wrap;rounded=0;" vertex="1" parent="1">
          <mxGeometry x="40" y="10" width="230" height="30" as="geometry" />
        </mxCell>
        <mxCell id="LNmc2DqSNjEhNIRZq2Sj-2" value="ASP.NET" style="text;html=1;align=center;verticalAlign=middle;whiteSpace=wrap;rounded=0;" vertex="1" parent="1">
          <mxGeometry x="550" y="10" width="230" height="30" as="geometry" />
        </mxCell>
        <mxCell id="LNmc2DqSNjEhNIRZq2Sj-8" style="edgeStyle=orthogonalEdgeStyle;rounded=0;orthogonalLoop=1;jettySize=auto;html=1;" edge="1" parent="1" source="LNmc2DqSNjEhNIRZq2Sj-3" target="LNmc2DqSNjEhNIRZq2Sj-4">
          <mxGeometry relative="1" as="geometry" />
        </mxCell>
        <mxCell id="LNmc2DqSNjEhNIRZq2Sj-3" value="Frontend" style="rounded=0;whiteSpace=wrap;html=1;" vertex="1" parent="1">
          <mxGeometry x="95" y="110" width="120" height="60" as="geometry" />
        </mxCell>
        <mxCell id="LNmc2DqSNjEhNIRZq2Sj-7" style="edgeStyle=orthogonalEdgeStyle;rounded=0;orthogonalLoop=1;jettySize=auto;html=1;" edge="1" parent="1" source="LNmc2DqSNjEhNIRZq2Sj-4" target="LNmc2DqSNjEhNIRZq2Sj-6">
          <mxGeometry relative="1" as="geometry" />
        </mxCell>
        <mxCell id="LNmc2DqSNjEhNIRZq2Sj-9" style="edgeStyle=orthogonalEdgeStyle;rounded=0;orthogonalLoop=1;jettySize=auto;html=1;" edge="1" parent="1" source="LNmc2DqSNjEhNIRZq2Sj-4">
          <mxGeometry relative="1" as="geometry">
            <mxPoint x="215" y="160" as="targetPoint" />
            <Array as="points">
              <mxPoint x="215" y="160" />
            </Array>
          </mxGeometry>
        </mxCell>
        <mxCell id="LNmc2DqSNjEhNIRZq2Sj-4" value="API" style="rounded=0;whiteSpace=wrap;html=1;" vertex="1" parent="1">
          <mxGeometry x="610" y="110" width="120" height="60" as="geometry" />
        </mxCell>
        <mxCell id="LNmc2DqSNjEhNIRZq2Sj-6" value="Azure SQL Database" style="shape=cylinder3;whiteSpace=wrap;html=1;boundedLbl=1;backgroundOutline=1;size=15;" vertex="1" parent="1">
          <mxGeometry x="621.11" y="290" width="97.78" height="110" as="geometry" />
        </mxCell>
        <mxCell id="LNmc2DqSNjEhNIRZq2Sj-10" value="Request" style="text;html=1;align=center;verticalAlign=middle;whiteSpace=wrap;rounded=0;" vertex="1" parent="1">
          <mxGeometry x="380" y="100" width="60" height="30" as="geometry" />
        </mxCell>
        <mxCell id="LNmc2DqSNjEhNIRZq2Sj-11" value="Response" style="text;html=1;align=center;verticalAlign=middle;whiteSpace=wrap;rounded=0;" vertex="1" parent="1">
          <mxGeometry x="380" y="170" width="60" height="30" as="geometry" />
        </mxCell>
      </root>
    </mxGraphModel>
  </diagram>
</mxfile>
